<svg id="Layer_1" data-name="Layer 1" xmlns="http://www.w3.org/2000/svg" viewBox="0 0 198 198"><defs><style>.cls-1{font-size:60px;font-family:MyanmarMN, Myanmar MN;}.cls-1,.cls-2,.cls-3,.cls-4,.cls-5{fill:none;stroke:#fff;stroke-miterlimit:10;}.cls-2{font-size:24px;font-family:LetterGothicStd-Bold, Letter Gothic Std;font-weight:700;}.cls-4{stroke-width:0.25px;}.cls-5{stroke-width:4px;}</style></defs><title>logo3</title><text class="cls-1" transform="translate(22.41 131.05)">V</text><text class="cls-1" transform="translate(138.41 131.05)">V</text><text class="cls-2" transform="translate(34.21 156.56)">F</text><text class="cls-2" transform="translate(48.61 156.56) scale(0.7)">INE</text><text class="cls-2" transform="translate(78.85 156.56)"><tspan xml:space="preserve"> C</tspan></text><text class="cls-2" transform="translate(107.65 156.56) scale(0.7)">UISINE</text><path class="cls-3" d="M237.54,76q-.75,0-1.5,0a31.23,31.23,0,0,0-50.73,0q-.75,0-1.5,0C167.38,76,154,88.29,154,103.43c0,12.67,9.44,23.57,22.48,26.61v39a3.92,3.92,0,0,0,4.07,3.75h60.26a3.92,3.92,0,0,0,4.07-3.75V130c13-3,22.48-13.95,22.48-26.61C267.36,88.29,254,76,237.54,76Zm-.8,89.32H184.62v-7.06h52.12v7.06Zm3.56-42.07a3.87,3.87,0,0,0-3.56,3.72V152h-7.81V128.63a3.4,3.4,0,0,0-6.78,0V152h-8.08V128.63a3.4,3.4,0,0,0-6.78,0V152h-8.08V128.63a3.4,3.4,0,0,0-6.78,0V152h-7.81V127.18a3.84,3.84,0,0,0-3.55-4c-10.8-1.25-18.94-9.76-18.94-19.79,0-11,9.73-20,21.68-20a23.67,23.67,0,0,1,3.17.22,4.16,4.16,0,0,0,4.24-2,22.55,22.55,0,0,1,38.9,0,4.16,4.16,0,0,0,4.24,2,23.68,23.68,0,0,1,3.17-.22c12,0,21.68,9,21.68,20C259.22,113.45,251.09,122,240.3,123.22Z" transform="translate(-112 -40)"/><line class="cls-4" x1="28" y1="136" x2="168" y2="135"/><circle class="cls-5" cx="99" cy="99" r="97"/></svg>