<svg id="Layer_1" data-name="Layer 1" xmlns="http://www.w3.org/2000/svg" viewBox="0 0 177.66 147"><defs><style>.cls-1{font-size:60px;font-family:MyanmarMN, Myanmar MN;}.cls-1,.cls-2{fill:#fff;}.cls-2{font-size:24px;font-family:LetterGothicStd-Bold, Letter Gothic Std;font-weight:700;}.cls-3{fill:none;stroke:#fff;stroke-miterlimit:10;stroke-width:0.25px;}</style></defs><title>logo1</title><text class="cls-1" transform="translate(17.07 93.05)">V</text><text class="cls-1" transform="translate(109.07 93.05)">V</text><text class="cls-2" transform="translate(21.87 133.56)">F</text><text class="cls-2" transform="translate(36.27 133.56) scale(0.7)">INE</text><text class="cls-2" transform="translate(66.51 133.56)"><tspan xml:space="preserve"> C</tspan></text><text class="cls-2" transform="translate(95.31 133.56) scale(0.7)">UISINE</text><path d="M153.54,26q-.75,0-1.5,0a31.23,31.23,0,0,0-50.73,0q-.75,0-1.5,0C83.38,26,70,38.29,70,53.43,70,66.1,79.44,77,92.48,80v39a3.92,3.92,0,0,0,4.07,3.75h60.26a3.92,3.92,0,0,0,4.07-3.75V80c13-3,22.48-13.95,22.48-26.61C183.36,38.29,170,26,153.54,26Zm-.8,89.32H100.62v-7.06h52.12v7.06Zm3.56-42.07a3.87,3.87,0,0,0-3.56,3.72V102h-7.81V78.63a3.4,3.4,0,0,0-6.78,0V102h-8.08V78.63a3.4,3.4,0,0,0-6.78,0V102h-8.08V78.63a3.4,3.4,0,0,0-6.78,0V102h-7.81V77.18a3.84,3.84,0,0,0-3.55-4C86.28,72,78.14,63.46,78.14,53.43c0-11,9.73-20,21.68-20a23.67,23.67,0,0,1,3.17.22,4.16,4.16,0,0,0,4.24-2,22.55,22.55,0,0,1,38.9,0,4.16,4.16,0,0,0,4.24,2,23.68,23.68,0,0,1,3.17-.22c12,0,21.68,9,21.68,20C175.22,63.45,167.09,72,156.3,73.22Z" transform="translate(-40.34 -13)"/><line class="cls-3" x1="15.66" y1="113" x2="155.66" y2="112"/></svg>