<svg id="Layer_1" data-name="Layer 1" xmlns="http://www.w3.org/2000/svg" viewBox="0 0 206 206"><defs><style>.cls-1{font-size:60px;font-family:MyanmarMN, Myanmar MN;}.cls-1,.cls-2,.cls-3{fill:#fff;}.cls-1,.cls-2,.cls-3,.cls-6{stroke:#fff;}.cls-1,.cls-2,.cls-3,.cls-4,.cls-5,.cls-6{stroke-miterlimit:10;}.cls-2{font-size:24px;font-family:LetterGothicStd-Bold, Letter Gothic Std;font-weight:700;}.cls-4,.cls-5,.cls-6{fill:none;}.cls-4{stroke:#2e3192;stroke-width:0.25px;}.cls-5{stroke:#1b1464;}.cls-5,.cls-6{stroke-width:4px;}</style></defs><title>logo5</title><text class="cls-1" transform="translate(26.41 135.05)">V</text><text class="cls-1" transform="translate(142.41 135.05)">V</text><text class="cls-2" transform="translate(38.21 160.56)">F</text><text class="cls-2" transform="translate(52.61 160.56) scale(0.7)">INE</text><text class="cls-2" transform="translate(82.85 160.56)"><tspan xml:space="preserve"> C</tspan></text><text class="cls-2" transform="translate(111.65 160.56) scale(0.7)">UISINE</text><path class="cls-3" d="M237.54,76q-.75,0-1.5,0a31.23,31.23,0,0,0-50.73,0q-.75,0-1.5,0C167.38,76,154,88.29,154,103.43c0,12.67,9.44,23.57,22.48,26.61v39a3.92,3.92,0,0,0,4.07,3.75h60.26a3.92,3.92,0,0,0,4.07-3.75V130c13-3,22.48-13.95,22.48-26.61C267.36,88.29,254,76,237.54,76Zm-.8,89.32H184.62v-7.06h52.12v7.06Zm3.56-42.07a3.87,3.87,0,0,0-3.56,3.72V152h-7.81V128.63a3.4,3.4,0,0,0-6.78,0V152h-8.08V128.63a3.4,3.4,0,0,0-6.78,0V152h-8.08V128.63a3.4,3.4,0,0,0-6.78,0V152h-7.81V127.18a3.84,3.84,0,0,0-3.55-4c-10.8-1.25-18.94-9.76-18.94-19.79,0-11,9.73-20,21.68-20a23.67,23.67,0,0,1,3.17.22,4.16,4.16,0,0,0,4.24-2,22.55,22.55,0,0,1,38.9,0,4.16,4.16,0,0,0,4.24,2,23.68,23.68,0,0,1,3.17-.22c12,0,21.68,9,21.68,20C259.22,113.45,251.09,122,240.3,123.22Z" transform="translate(-108 -36)"/><line class="cls-4" x1="32" y1="140" x2="172" y2="139"/><circle class="cls-5" cx="103" cy="103" r="97"/><path class="cls-6" d="M211,240A101,101,0,1,1,312,139,101.11,101.11,0,0,1,211,240Z" transform="translate(-108 -36)"/><path class="cls-6" d="M210.5,231c-51,0-92.5-41.27-92.5-92s41.5-92,92.5-92S303,88.27,303,139,261.5,231,210.5,231Z" transform="translate(-108 -36)"/></svg>